# AST/ASF file generated using VICON BodyLanguage
# -----------------------------------------------
:version 1.10
:name VICON
:units
  mass 1.0
  length 0.45
  angle deg
:documentation
   .ast/.asf automatically generated from VICON data using
   VICON BodyBuilder and BodyLanguage model FoxedUp or BRILLIANT.MOD
:root
   order TX TY TZ RX RY RZ
   axis XYZ
   position 0 0 0  
   orientation 0 0 0 
:bonedata
  begin
     id 1 
     name lhipjoint
     direction 0.677091 -0.635792 0.370561 
     length 2.74323 
     axis 0 0 0  XYZ
  end
  begin
     id 2 
     name lfemur
     direction 0.34202 -0.939693 0  
     length 7.44995  
     axis 0 0 20  XYZ
    dof rx ry rz
    limits (-160.0 20.0)
           (-70.0 70.0)
           (-60.0 70.0)
  end
  begin
     id 3 
     name ltibia
     direction 0.34202 -0.939693 0   
     length 7.34467   
     axis 0 0 20   XYZ
    dof rx
    limits (-10.0 170.0)
  end
  begin
     id 4 
     name lfoot
     direction 0.101953 -0.280114 0.954537   
     length 1.72105   
     axis -90 7.62852e-016 20   XYZ
    dof rx rz
    limits (-45.0 90.0)
           (-70.0 20.0)
  end
  begin
     id 5 
     name ltoes
     direction 1.53537e-011 -4.21915e-011 1   
     length 0.865872   
     axis -90 7.62852e-016 20   XYZ
    dof rx
    limits (-90.0 20.0)
  end
  begin
     id 6 
     name rhipjoint
     direction -0.695735 -0.620586 0.361699   
     length 2.81045  
     axis 0 0 0  XYZ 
  end
  begin
     id 7 
     name rfemur
     direction -0.34202 -0.939693 0   
     length 7.29387   
     axis 0 0 -20   XYZ
    dof rx ry rz
    limits (-160.0 20.0)
           (-70.0 70.0)
           (-70.0 60.0)
  end
  begin
     id 8 
     name rtibia
     direction -0.34202 -0.939693 0   
     length 7.44935   
     axis 0 0 -20   XYZ
    dof rx
    limits (-10.0 170.0)
 end
 begin
     id 9 
     name rfoot
     direction -0.104163 -0.286184 0.952496   
     length 1.77731  
     axis -90 -7.62852e-016 -20   XYZ
    dof rx rz
    limits (-45.0 90.0)
           (-20.0 70.0)
  end
  begin
     id 10 
     name rtoes
     direction -1.5355e-011 -4.21888e-011 1   
     length 0.892424   
     axis -90 -7.62852e-016 -20   XYZ
    dof rx
    limits (-90.0 20.0)
  end
  begin
     id 11 
     name lowerback
     direction 0.0100202 0.997226 -0.0737589   
     length 2.16892   
     axis 0 0 0   XYZ
    dof rx ry rz
    limits (-20.0 45.0)
           (-30.0 30.0)
           (-30.0 30.0)
  end
  begin
     id 12 
     name upperback
     direction 0.00432398 0.999988 -0.00215019   
     length 2.17326   
     axis 0 0 0   XYZ
    dof rx ry rz
    limits (-20.0 45.0)
           (-30.0 30.0)
           (-30.0 30.0)
  end
  begin
     id 13 
     name thorax
     direction -0.00195047 0.999485 0.0320434   
     length 2.18139   
     axis 0 0 0   XYZ
    dof rx ry rz
    limits (-20.0 45.0)
           (-30.0 30.0)
           (-30.0 30.0)
  end
  begin
     id 14 
     name lowerneck
     direction 0.00782762 0.986241 0.165128   
     length 1.88415   
     axis 0 0 0   XYZ
    dof rx ry rz
    limits (-20.0 45.0)
           (-30.0 30.0)
           (-30.0 30.0)
  end
  begin
     id 15 
     name upperneck
     direction 0.00988667 0.981098 -0.193258   
     length 1.9242   
     axis 0 0 0   XYZ
    dof rx ry rz
    limits (-20.0 45.0)
           (-30.0 30.0)
           (-30.0 30.0)
  end
  begin
     id 16
     name head
     direction 0.00252199 0.996513 -0.0833958  
     length 1.93887  
     axis 0 0 0   XYZ
    dof rx ry rz
    limits (-20.0 45.0)
           (-30.0 30.0)
           (-30.0 30.0)
  end
  begin
     id 17 
     name lclavicle
     direction 0.929492 0.368193 -0.0218667  
     length 3.5955  
     axis 0 0 0   XYZ
    dof ry rz
    limits (-20.0 10.0)
           (0.0 20.0)
  end
  begin
     id 18 
     name lhumerus
     direction 1 -4.48972e-011 1.41911e-027   
     length 5.2795   
     axis 180 -30 -90   XYZ
    dof rx ry rz
    limits (-60.0 90.0)
           (-90.0 90.0)
           (-90.0 90.0)
  end
  begin
     id 19
     name lradius
     direction 1 -4.48963e-011 7.05772e-027   
     length 3.53504   
     axis 180 -30 -90   XYZ
    dof rx
    limits (-10.0 170.0)
  end
  begin
     id 20
     name lwrist
     direction 1 -4.48957e-011 9.54866e-027   
     length 1.76752   
     axis -7.69462e-015 90 90   XYZ
    dof ry
    limits (-180.0 0.0)
 end
  begin
     id 21 
     name lhand
     direction 1 -4.48979e-011 1.90973e-026   
     length 0.667948   
     axis -1.21857e-014 90 90   XYZ
    dof rx rz
    limits (-90.0 90.0)
           (-45.0 45.0)
  end
  begin
     id 22 
     name lfingers
     direction 1 -4.48987e-011 3.81946e-026   
     length 0.538517   
     axis -2.43714e-014 90 90   XYZ
    dof rx
    limits (0.0 90.0)
  end
  begin
     id 23
     name lthumb
     direction 0.707107 -6.34962e-011 0.707107   
     length 0.773206   
     axis -90 45 2.85299e-015   XYZ
    dof rx rz
    limits (-45.0 45.0)
           (-45.0 45.0)
  end
  begin
     id 24 
     name rclavicle
     direction -0.898763 0.414256 -0.143584   
     length 3.5176  
     axis 0 0 0   XYZ 
    dof ry rz
    limits (-10.0 20.0)
           (-20.0 0.0)
  end
  begin
     id 25 
     name rhumerus
     direction -1 -4.48971e-011 1.129e-027  
     length 5.25035   
     axis 180 30 90   XYZ
    dof rx ry rz
    limits (-90.0 60.0)
           (-90.0 90.0)
           (-90.0 90.0)
  end
  begin
     id 26 
     name rradius
     direction -1 -4.48955e-011 6.34664e-027   
     length 3.58884   
     axis 180 30 90   XYZ
    dof rx
    limits (-10.0 170.0)
  end
  begin
     id 27 
     name rwrist
     direction -1 -4.48966e-011 9.54866e-027   
     length 1.79442   
     axis -7.69462e-015 -90 -90   XYZ
    dof ry
    limits (-180.0 0.0)
  end
  begin
     id 28
     name rhand
     direction -1 -4.48973e-011 1.90973e-026   
     length 0.779235   
     axis -1.21857e-014 -90 -90   XYZ
    dof rx rz
    limits (-90.0 90.0)
           (-45.0 45.0)
  end
  begin
     id 29
     name rfingers
     direction -1 -4.48984e-011 3.81946e-026   
     length 0.62824   
     axis -2.43714e-014 -90 -90   XYZ
    dof rx
    limits (0.0 90.0)
  end
  begin
     id 30
     name rthumb
     direction -0.707107 -6.34968e-011 0.707107   
     length 0.90203   
     axis -90 -45 -2.85299e-015   XYZ
    dof rx rz
    limits (-45.0 45.0)
           (-45.0 45.0)
  end
:hierarchy
  begin
    root lhipjoint rhipjoint lowerback
    lhipjoint lfemur
    lfemur ltibia
    ltibia lfoot
    lfoot ltoes
    rhipjoint rfemur
    rfemur rtibia
    rtibia rfoot
    rfoot rtoes
    lowerback upperback
    upperback thorax
    thorax lowerneck lclavicle rclavicle
    lowerneck upperneck
    upperneck head
    lclavicle lhumerus
    lhumerus lradius
    lradius lwrist
    lwrist lhand lthumb
    lhand lfingers
    rclavicle rhumerus
    rhumerus rradius
    rradius rwrist
    rwrist rhand rthumb
    rhand rfingers
  end

#!OML:ASF I:\Random Stuff\random\construction\7_22_03\Session 2\subj1.ASF
:FULLY-SPECIFIED
:DEGREES
383
root -9.87104 17.7548 -6.18459 -179.317 105.001 -196.879
lowerback 13.052 1.9981 -4.16721
upperback 4.49412 2.19591 -3.09926
thorax -2.6112 1.16879 -1.22225
lowerneck -18.1099 4.4126 4.35528
upperneck 40.2067 8.3902 -3.27827
head 18.5716 3.91416 -0.456058
rclavicle 3.4191e-014 -4.77083e-015
rhumerus -27.5538 36.4174 -97.064
rradius 69.4531
rwrist -1.4331
rhand -46.4845 29.7515
rfingers 7.12502
rthumb -19.2117 0.680382
lclavicle 3.4191e-014 -4.77083e-015
lhumerus 5.75955 -30.8069 86.1701
lradius 47.8714
lwrist -4.45138
lhand -18.5584 41.7384
lfingers 7.12502
lthumb 7.73138 71.5771
rfemur -19.1209 7.30292 13.9582
rtibia 3.47873e-015
rfoot 3.56486 -7.81807
rtoes -25.284
lfemur -29.8053 -1.67905 -9.99875
ltibia 26.5586
lfoot -15.5806 13.5216
ltoes -27.5004
384
root -9.87442 17.7535 -6.18602 -179.412 104.993 -196.977
lowerback 13.0449 2.03886 -4.17136
upperback 4.49415 2.25008 -3.04299
thorax -2.61043 1.19467 -1.16912
lowerneck -18.1919 4.29657 4.15217
upperneck 40.2717 8.18784 -3.0451
head 18.5885 3.835 -0.351025
rclavicle 5.56597e-015 1.74931e-014
rhumerus -27.6935 36.7387 -96.9231
rradius 69.7536
rwrist -2.19338
rhand -46.4724 30.7277
rfingers 7.12502
rthumb -19.2 1.65546
lclavicle 5.56597e-015 1.74931e-014
lhumerus 5.99354 -31.113 85.9469
lradius 47.9724
lwrist -4.21161
lhand -17.5184 41.869
lfingers 7.12502
lthumb 8.73514 71.6683
rfemur -19.1299 7.29901 13.981
rtibia -2.75317e-014
rfoot 3.567 -7.82926
rtoes -25.2622
lfemur -29.8243 -1.65452 -9.97581
ltibia 26.5658
lfoot -15.5577 13.4509
ltoes -27.2244
385
root -9.8755 17.7535 -6.19039 -179.589 104.842 -197.104
lowerback 13.085 2.02243 -4.06455
upperback 4.52056 2.2423 -3.01503
thorax -2.60193 1.19121 -1.19936
lowerneck -18.2555 4.20707 4.02044
upperneck 40.312 8.01433 -2.85198
head 18.5964 3.77292 -0.271775
rclavicle 3.26007e-014 2.54444e-014
rhumerus -27.8528 36.9709 -96.8189
rradius 70.219
rwrist -3.13264
rhand -46.3435 31.0357
rfingers 7.12502
rthumb -19.0761 1.95114
lclavicle 3.26007e-014 2.54444e-014
lhumerus 6.21301 -31.403 85.7496
lradius 48.0191
lwrist -4.07671
lhand -16.5534 42.0717
lfingers 7.12502
lthumb 9.6663 71.8299
rfemur -19.04 7.15541 14.0117
rtibia -2.01766e-014
rfoot 3.53334 -7.83177
rtoes -25.336
lfemur -29.8203 -1.82922 -9.94623
ltibia 26.5684
lfoot -15.5198 13.415
ltoes -26.8741
386
root -9.87652 17.7544 -6.19332 -179.829 104.76 -197.338
lowerback 13.0771 2.01696 -3.93314
upperback 4.52954 2.25269 -3.00294
thorax -2.58447 1.19655 -1.26125
lowerneck -18.2821 4.16157 3.98733
upperneck 40.3316 7.90674 -2.73919
head 18.5985 3.7414 -0.234732
rclavicle -7.95139e-016 -1.90833e-014
rhumerus -28.0311 37.1056 -96.788
rradius 70.6638
rwrist -3.76627
rhand -46.1942 31.1065
rfingers 7.12502
rthumb -18.9325 2.00788
lclavicle -7.95139e-016 -1.90833e-014
lhumerus 6.41071 -31.6133 85.5698
lradius 47.9451
lwrist -4.20707
lhand -15.6789 42.2324
lfingers 7.12502
lthumb 10.51 71.9497
rfemur -19.0119 7.07866 14.0689
rtibia 3.08116e-014
rfoot 3.57042 -7.80618
rtoes -25.5005
lfemur -29.8367 -2.03797 -9.85269
ltibia 26.5603
lfoot -15.4958 13.5662
ltoes -27.1481
387
root -9.87826 17.756 -6.1937 -179.888 104.751 -197.445
lowerback 13.0172 2.0306 -3.88803
upperback 4.50009 2.27684 -2.99705
thorax -2.58194 1.20798 -1.28234
lowerneck -18.2505 4.1381 4.00385
upperneck 40.3598 7.84541 -2.67992
head 18.6 3.73002 -0.22315
rclavicle 1.19271e-014 -1.59028e-014
rhumerus -28.2463 37.1732 -96.7951
rradius 71.0658
rwrist -4.19617
rhand -46.2159 31.8171
rfingers 7.12502
rthumb -18.9533 2.72057
lclavicle 1.19271e-014 -1.59028e-014
lhumerus 6.55116 -31.785 85.4099
lradius 47.8459
lwrist -4.33598
lhand -15.1108 42.2274
lfingers 7.12502
lthumb 11.0579 71.9161
rfemur -19.0718 7.06853 14.0869
rtibia -4.57205e-015
rfoot 3.62256 -7.79227
rtoes -25.3921
lfemur -29.8928 -2.22426 -9.76884
ltibia 26.5464
lfoot -15.5082 13.7832
ltoes -27.4275
388
root -9.8794 17.7566 -6.19354 -179.836 104.708 -197.427
lowerback 12.9624 2.02235 -3.90353
upperback 4.47529 2.26523 -2.98529
thorax -2.57928 1.2016 -1.258
lowerneck -18.2081 4.13391 4.02785
upperneck 40.3933 7.82934 -2.65641
head 18.6074 3.73262 -0.220316
rclavicle -3.57812e-014 -1.74931e-014
rhumerus -28.4673 37.208 -96.7979
rradius 71.4452
rwrist -4.30796
rhand -46.5148 32.8037
rfingers 7.12502
rthumb -19.2408 3.73551
lclavicle -3.57812e-014 -1.74931e-014
lhumerus 6.6561 -31.9488 85.2424
lradius 47.7954
lwrist -4.42369
lhand -14.6674 42.1584
lfingers 7.12502
lthumb 11.4855 71.8238
rfemur -19.1094 7.02381 14.0713
rtibia -6.36111e-014
rfoot 3.5958 -7.82241
rtoes -25.228
lfemur -29.9376 -2.38727 -9.73883
ltibia 26.5242
lfoot -15.5175 13.905
ltoes -27.2884
389
root -9.88067 17.7564 -6.19409 -179.8 104.644 -197.402
lowerback 12.939 1.97867 -3.94906
upperback 4.47092 2.20377 -2.95775
thorax -2.5734 1.17058 -1.19358
lowerneck -18.1861 4.18036 4.04428
upperneck 40.3892 7.90915 -2.6857
head 18.6066 3.76233 -0.22081
rclavicle -1.35174e-014 -2.38542e-014
rhumerus -28.6788 37.3159 -96.8324
rradius 71.7659
rwrist -4.05768
rhand -47.0392 34.0615
rfingers 7.12502
rthumb -19.745 5.04436
lclavicle -1.35174e-014 -2.38542e-014
lhumerus 6.80298 -32.0608 85.0544
lradius 47.7533
lwrist -4.57901
lhand -14.1632 42.3119
lfingers 7.12502
lthumb 11.9717 71.9495
rfemur -19.112 6.9611 14.0564
rtibia 4.16454e-014
rfoot 3.57819 -7.8572
rtoes -25.2667
lfemur -29.9508 -2.56411 -9.71918
ltibia 26.4776
lfoot -15.5427 14.0451
ltoes -27.1183
390
root -9.8819 17.7576 -6.19494 -179.685 104.575 -197.296
lowerback 12.9513 1.93114 -3.98864
upperback 4.45046 2.13427 -2.95179
thorax -2.60241 1.13619 -1.15567
lowerneck -18.1565 4.23205 4.03541
upperneck 40.3715 7.9893 -2.67965
head 18.5914 3.79335 -0.200683
rclavicle -7.23576e-014 1.27222e-014
rhumerus -28.9288 37.3272 -96.9699
rradius 72.0179
rwrist -3.63787
rhand -47.5406 35.5993
rfingers 7.12502
rthumb -20.2269 6.63242
lclavicle -7.23576e-014 1.27222e-014
lhumerus 6.93109 -32.1389 84.9324
lradius 47.6729
lwrist -4.79628
lhand -13.8004 42.4823
lfingers 7.12502
lthumb 12.3216 72.0992
rfemur -19.1094 6.89122 14.0182
rtibia -1.33186e-014
rfoot 3.60816 -7.85097
rtoes -25.1927
lfemur -29.9459 -2.80163 -9.70665
ltibia 26.4029
lfoot -15.6007 14.2553
ltoes -27.0053
391
root -9.88306 17.7593 -6.1946 -179.616 104.504 -197.257
lowerback 12.9575 1.90319 -3.9914
upperback 4.42102 2.09441 -2.95063
thorax -2.63642 1.11656 -1.14781
lowerneck -18.1627 4.22989 3.99736
upperneck 40.3779 7.99445 -2.66283
head 18.5936 3.79186 -0.184728
rclavicle -5.725e-014 3.18055e-014
rhumerus -29.1795 37.1772 -97.1199
rradius 72.2776
rwrist -3.28136
rhand -47.889 36.7508
rfingers 7.12502
rthumb -20.5618 7.8197
lclavicle -5.725e-014 3.18055e-014
lhumerus 6.97353 -32.1668 84.9224
lradius 47.6317
lwrist -4.96133
lhand -13.6336 42.5307
lfingers 7.12502
lthumb 12.4824 72.1379
rfemur -19.1263 6.82116 14.0007
rtibia -5.397e-014
rfoot 3.63939 -7.82376
rtoes -24.992
lfemur -29.9498 -3.03894 -9.66843
ltibia 26.3103
lfoot -15.6126 14.4539
ltoes -26.9333
